<svg width="200" height="150" viewBox="0 0 200 150" fill="none" xmlns="http://www.w3.org/2000/svg">
<mask id="mask0_154_155" style="mask-type:luminance" maskUnits="userSpaceOnUse" x="0" y="0" width="200" height="150">
<path d="M0 0H200V150H0V0Z" fill="white"/>
</mask>
<g mask="url(#mask0_154_155)">
<path fill-rule="evenodd" clip-rule="evenodd" d="M0 0V150H200V0H0Z" fill="#FFB400"/>
<mask id="mask1_154_155" style="mask-type:luminance" maskUnits="userSpaceOnUse" x="0" y="0" width="200" height="150">
<path fill-rule="evenodd" clip-rule="evenodd" d="M0 0V150H200V0H0Z" fill="white"/>
</mask>
<g mask="url(#mask1_154_155)">
<path fill-rule="evenodd" clip-rule="evenodd" d="M0 0V37.5H200V0H0Z" fill="#C51918"/>
<path fill-rule="evenodd" clip-rule="evenodd" d="M0 112.5V150H200V112.5H0Z" fill="#C51918"/>
<path d="M31.2988 64.2H38.2988V100.6H31.2988V64.2Z" fill="#F1F9FF"/>
<path fill-rule="evenodd" clip-rule="evenodd" d="M41.1033 57.8995H28.5033V61.3995H30.6033V64.1994H39.0033V61.3995H41.1033V57.8995Z" fill="#C88A02"/>
<path fill-rule="evenodd" clip-rule="evenodd" d="M39.0033 102.699H41.1033V106.199H28.5033V102.699H30.6033V99.8994H39.0033V102.699Z" fill="#C88A02"/>
<path fill-rule="evenodd" clip-rule="evenodd" d="M34.8012 58.5995C36.3245 58.5995 36.4793 58.0259 37.3781 57.1692C38.0759 56.5039 39.7012 55.6789 39.7012 54.7495C39.7012 52.6232 37.5074 50.8995 34.8012 50.8995C32.095 50.8995 29.9012 52.6232 29.9012 54.7495C29.9012 55.7849 31.0204 56.4773 31.8667 57.1692C32.7583 57.8982 33.4128 58.5995 34.8012 58.5995Z" fill="#AD1619"/>
<path fill-rule="evenodd" clip-rule="evenodd" d="M28.5033 106.199H41.1033V111.799C41.1033 111.799 39.5283 111.099 37.9533 111.099C36.3783 111.099 34.8033 111.799 34.8033 111.799C34.8033 111.799 33.2283 111.099 31.6533 111.099C30.0783 111.099 28.5033 111.799 28.5033 111.799V106.199Z" fill="#005BBF"/>
<mask id="mask2_154_155" style="mask-type:luminance" maskUnits="userSpaceOnUse" x="28" y="106" width="14" height="6">
<path fill-rule="evenodd" clip-rule="evenodd" d="M28.5033 106.199H41.1033V111.799C41.1033 111.799 39.5283 111.099 37.9533 111.099C36.3783 111.099 34.8033 111.799 34.8033 111.799C34.8033 111.799 33.2283 111.099 31.6533 111.099C30.0783 111.099 28.5033 111.799 28.5033 111.799V106.199Z" fill="white"/>
</mask>
<g mask="url(#mask2_154_155)">
<path d="M28.3879 110.699L28.1129 110.029C29.2478 109.524 30.3867 109.271 31.5273 109.271C32.2643 109.271 32.6491 109.373 33.3033 109.664C33.8779 109.92 34.1758 109.999 34.8042 109.999C35.4326 109.999 35.7305 109.92 36.3051 109.664C36.9593 109.373 37.3441 109.271 38.0811 109.271C39.2217 109.271 40.3606 109.524 41.4955 110.029L41.2204 110.699C40.1708 110.233 39.1251 109.999 38.0811 109.999C37.4526 109.999 37.1548 110.079 36.5801 110.335C35.9259 110.626 35.5411 110.729 34.8042 110.729C34.0673 110.729 33.6824 110.626 33.0283 110.335C32.4536 110.079 32.1558 109.999 31.5273 109.999C30.4833 109.999 29.4376 110.233 28.3879 110.699Z" fill="white"/>
<path d="M28.3879 108.599L28.1128 107.929C29.2477 107.424 30.3866 107.17 31.5272 107.17C32.2642 107.17 32.649 107.273 33.3032 107.564C33.8778 107.82 34.1757 107.899 34.8041 107.899C35.4325 107.899 35.7304 107.82 36.305 107.564C36.9592 107.273 37.344 107.17 38.081 107.17C39.2216 107.17 40.3605 107.424 41.4954 107.929L41.2204 108.599C40.1707 108.132 39.125 107.899 38.081 107.899C37.4525 107.899 37.1547 107.979 36.58 108.234C35.9259 108.526 35.541 108.629 34.8041 108.629C34.0672 108.629 33.6824 108.526 33.0282 108.234C32.4535 107.979 32.1557 107.899 31.5272 107.899C30.4832 107.899 29.4375 108.132 28.3879 108.599Z" fill="white"/>
</g>
<path d="M99.9023 64.2H106.902V100.6H99.9023V64.2Z" fill="#F1F9FF"/>
<path fill-rule="evenodd" clip-rule="evenodd" d="M109.701 57.8995H97.1008V61.3995H99.2008V64.1994H107.601V61.3995H109.701V57.8995Z" fill="#C88A02"/>
<path fill-rule="evenodd" clip-rule="evenodd" d="M107.601 102.699H109.701V106.199H97.1008V102.699H99.2008V99.8994H107.601V102.699Z" fill="#C88A02"/>
<path fill-rule="evenodd" clip-rule="evenodd" d="M103.398 58.5995C104.922 58.5995 105.077 58.0259 105.975 57.1692C106.673 56.5039 108.298 55.6789 108.298 54.7495C108.298 52.6232 106.105 50.8995 103.398 50.8995C100.692 50.8995 98.4984 52.6232 98.4984 54.7495C98.4984 55.7849 99.6178 56.4773 100.464 57.1692C101.355 57.8982 102.01 58.5995 103.398 58.5995Z" fill="#AD1619"/>
<path fill-rule="evenodd" clip-rule="evenodd" d="M97.1008 106.199H109.701V111.799C109.701 111.799 108.126 111.099 106.551 111.099C104.976 111.099 103.401 111.799 103.401 111.799C103.401 111.799 101.826 111.099 100.251 111.099C98.6758 111.099 97.1008 111.799 97.1008 111.799V106.199Z" fill="#005BBF"/>
<mask id="mask3_154_155" style="mask-type:luminance" maskUnits="userSpaceOnUse" x="97" y="106" width="13" height="6">
<path fill-rule="evenodd" clip-rule="evenodd" d="M97.101 106.199H109.701V111.799C109.701 111.799 108.126 111.099 106.551 111.099C104.976 111.099 103.401 111.799 103.401 111.799C103.401 111.799 101.826 111.099 100.251 111.099C98.676 111.099 97.101 111.799 97.101 111.799V106.199Z" fill="white"/>
</mask>
<g mask="url(#mask3_154_155)">
<path d="M96.9852 110.699L96.7102 110.029C97.8445 109.524 98.9839 109.271 100.125 109.271C100.861 109.271 101.246 109.373 101.9 109.664C102.475 109.92 102.773 109.999 103.401 109.999C104.03 109.999 104.328 109.92 104.902 109.664C105.556 109.373 105.941 109.271 106.678 109.271C107.819 109.271 108.958 109.524 110.093 110.029L109.818 110.699C108.768 110.233 107.722 109.999 106.678 109.999C106.05 109.999 105.752 110.079 105.177 110.335C104.523 110.626 104.138 110.729 103.401 110.729C102.665 110.729 102.28 110.626 101.625 110.335C101.051 110.079 100.753 109.999 100.125 109.999C99.0802 109.999 98.0346 110.233 96.9852 110.699Z" fill="white"/>
<path d="M96.9853 108.599L96.7103 107.929C97.8446 107.424 98.984 107.17 100.125 107.17C100.862 107.17 101.246 107.273 101.9 107.564C102.475 107.82 102.773 107.899 103.402 107.899C104.03 107.899 104.328 107.82 104.902 107.564C105.557 107.273 105.942 107.17 106.678 107.17C107.819 107.17 108.958 107.424 110.093 107.929L109.818 108.599C108.768 108.132 107.722 107.899 106.678 107.899C106.05 107.899 105.752 107.979 105.177 108.234C104.523 108.526 104.138 108.629 103.402 108.629C102.665 108.629 102.28 108.526 101.625 108.234C101.051 107.979 100.753 107.899 100.125 107.899C99.0803 107.899 98.0346 108.132 96.9853 108.599Z" fill="white"/>
</g>
<path fill-rule="evenodd" clip-rule="evenodd" d="M31.1734 97.9994C32.4355 96.4694 33.1412 95.0775 33.1412 93.5988C33.1412 92.6669 32.8638 91.8619 32.3778 91.2038L32.4599 91.1669C32.4523 91.1706 33.8444 90.5638 34.329 90.3313C35.23 89.8994 36.0237 89.4419 36.7977 88.8788C37.2917 88.5194 37.9537 88.1281 38.9628 87.5863C39.1372 87.4925 39.6098 87.2419 39.9113 87.0819L40.1672 86.9463C40.6577 86.6844 41.0228 86.4838 41.3622 86.2869C42.4195 85.6738 43.1182 85.1669 43.6526 84.4888C44.9183 82.8838 44.6555 80.7081 42.8818 79.5006C42.0128 78.9088 40.8402 78.5694 39.1212 78.3025L38.7658 78.2475C38.1786 78.1563 37.0503 77.9819 36.6628 77.9213C35.8402 77.7919 35.1062 77.6713 34.4518 77.5569C38.7553 76.8413 44.9006 77.1044 47.6037 78.5L50.1728 73.5238C44.6644 70.68 32.1136 70.9706 27.4252 74.1988C23.9865 76.5675 24.448 80.1469 28.0258 81.6888C29.5208 82.3325 31.4697 82.76 35.0763 83.3394C34.4719 83.69 33.9708 84.0106 33.504 84.35C33.0305 84.6944 32.5232 84.9869 31.9079 85.2819C31.6137 85.4225 30.7425 85.805 30.343 85.9806L30.1419 86.0694C27.2277 87.3944 25.8133 89.2275 26.2359 92.5369L26.4647 94.3281L26.8751 94.4538L31.1734 97.9994ZM27.571 93.37L27.5622 93.3956L27.5689 93.3775L27.571 93.37ZM104.411 93.5988C104.411 95.0775 105.117 96.4694 106.378 97.9994L110.677 94.4538L111.087 94.3281L111.316 92.5369C111.739 89.2275 110.325 87.3944 107.41 86.0694L107.21 85.9806C106.81 85.8056 105.938 85.4225 105.644 85.2819C105.029 84.9869 104.522 84.6944 104.048 84.35C103.582 84.0106 103.08 83.69 102.476 83.3394C106.082 82.76 108.032 82.3325 109.527 81.6888C113.104 80.1469 113.565 76.5675 110.127 74.1988C105.438 70.9706 92.8878 70.68 87.379 73.5238L89.9484 78.5C92.6515 77.1044 98.7965 76.8413 103.1 77.5569C102.446 77.6713 101.712 77.7919 100.889 77.9213C100.502 77.9819 99.374 78.1563 98.7865 78.2469L98.4309 78.3025C96.7122 78.5694 95.539 78.9088 94.6703 79.5006C92.8965 80.7081 92.634 82.8838 93.8997 84.4888C94.434 85.1669 95.1328 85.6738 96.1897 86.2869C96.529 86.4838 96.8947 86.6844 97.3847 86.9463L97.6397 87.0813C97.9409 87.2413 98.4147 87.4925 98.589 87.5863C99.5984 88.1281 100.26 88.5194 100.755 88.8788C101.528 89.4419 102.322 89.8994 103.223 90.3313C103.708 90.5638 105.1 91.1706 105.092 91.1669L105.174 91.2038C104.688 91.8619 104.411 92.6669 104.411 93.5988Z" fill="#AD1619"/>
<path d="M37.0198 77.4994L39.086 77.9269V81.0063C36.8853 82.7625 31.2988 85.7219 31.2988 85.7219V77.4994H37.0198Z" fill="#F1F9FF"/>
<path d="M101.969 77.4994L99.9023 77.9269V81.0063C102.103 82.7625 107.69 85.7219 107.69 85.7219V77.4994H101.969Z" fill="#F1F9FF"/>
<path fill-rule="evenodd" clip-rule="evenodd" d="M92.3505 45.0368V44.012C88.7505 41.4279 84.9799 40.1359 81.0392 40.1359C77.2617 38.4642 73.438 37.8153 69.568 38.1891L69.5699 38.1711C63.7511 37.6018 57.8872 40.1359 57.8872 40.1359C51.9766 40.1359 46.5758 44.012 46.5758 44.012V45.0368L53.636 52.1276C53.636 52.1276 55.6232 58.9526 69.5411 57.3486V57.3659C69.5411 57.3659 78.7555 57.1144 79.403 56.899C79.6599 56.8136 79.9267 56.7358 80.1986 56.6563C82.0036 56.1294 84.0642 55.5278 85.2905 52.1276L92.3505 45.0368ZM69.5411 38.5027C69.3399 40.8635 68.193 55.0943 69.5411 57.3006V38.5027Z" fill="#AD1619"/>
<path fill-rule="evenodd" clip-rule="evenodd" d="M51.9591 50.9344L51.9638 50.9128L46.9969 46.2397L47.4765 45.7299L52.1373 50.1149L52.2566 49.5663C53.0191 49.7321 53.5764 49.7931 53.9013 49.7586V48.8073L54.9344 49.3664C55.4426 49.6414 56.1703 49.7154 57.1289 49.5594C57.8329 49.4449 58.3079 48.6272 58.4633 46.8849L58.7768 43.3677L59.8287 46.7386C60.3047 48.264 61.0308 48.9364 62.0646 48.9364C63.0745 48.9364 63.4801 48.5662 63.5251 47.6332L63.652 44.9871L64.8489 47.3506C65.2795 48.2021 65.8745 48.5884 66.7195 48.5884C67.9289 48.5884 68.7364 47.5804 68.7364 45.9989H68.7589H70.1364H70.1589C70.1589 47.5804 70.967 48.5884 72.1758 48.5884C73.0214 48.5884 73.6158 48.2021 74.047 47.3506L75.2433 44.9871L75.3708 47.6332C75.4151 48.5662 75.8214 48.9364 76.8308 48.9364C77.8645 48.9364 78.5908 48.264 79.0664 46.7386L80.1183 43.3677L80.432 46.8849C80.5876 48.6272 81.0626 49.4449 81.7664 49.5594C82.7251 49.7154 83.4526 49.6414 83.9608 49.3664L84.9939 48.8073V49.7586C85.3189 49.7931 85.8764 49.7321 86.6389 49.5663L86.8601 50.5842L92.0195 45.7299L92.4995 46.2397L86.0789 52.2804C85.142 54.0056 84.6701 55.1443 84.6701 55.6173C84.6701 56.3389 82.7926 56.7672 79.1289 57.2072C76.2583 57.5519 72.8708 57.7832 70.0995 57.8177L69.7483 57.8211L69.397 57.8222C66.6258 57.7877 63.2383 57.5519 60.3675 57.2072C56.7034 56.7672 54.826 56.3389 54.826 55.6173C54.826 55.5278 54.8091 55.4145 54.7754 55.2779C54.4059 54.8074 54.1461 54.0376 53.9733 53.3433C53.8111 53.0186 53.6258 52.664 53.4175 52.2804L51.995 50.9421L51.9591 50.9344ZM86.3683 51.047C85.222 51.25 84.3939 51.2295 83.9545 50.8719C83.2676 51.0718 82.462 51.091 81.5414 50.9412C80.5589 50.7814 79.8745 50.1277 79.4626 49.0433C78.9251 49.7282 78.2451 50.151 77.4314 50.2877C81.9108 50.923 85.0483 51.816 85.0483 51.816C85.0483 51.816 84.9714 52.4794 84.7833 53.2594C84.982 52.8511 85.2183 52.3973 85.4908 51.8966L85.5583 51.8091L86.3683 51.047ZM75.3176 50.0216C74.9276 49.8281 74.6164 49.5474 74.392 49.1856C74.0576 49.4806 73.6783 49.6963 73.2564 49.8294C73.9601 49.8832 74.6489 49.9483 75.3176 50.0216ZM70.7851 49.6932C70.2395 49.4412 69.7864 49.0377 69.4476 48.5206C69.1114 49.0341 68.662 49.4355 68.122 49.6878C68.442 49.6783 68.7639 49.6716 69.087 49.6679L69.3676 49.6656L69.6483 49.6647C70.0295 49.6691 70.4089 49.6807 70.7851 49.6932ZM53.8871 51.7611L53.2344 51.1471C54.0179 51.2248 54.5978 51.1511 54.9407 50.8719C55.6278 51.0718 56.4336 51.091 57.3537 50.9412C58.3365 50.7814 59.0208 50.1277 59.4326 49.0433C59.9546 49.7084 60.6107 50.1263 61.3938 50.2751C57.5316 50.8177 54.6501 51.556 53.8871 51.7611ZM65.6089 49.8196C64.9308 49.87 64.267 49.9309 63.6214 49.9997C63.9908 49.8071 64.287 49.534 64.5039 49.1856C64.8295 49.4735 65.1989 49.6859 65.6089 49.8196ZM82.8301 55.631C83.3201 55.8606 83.7133 55.6316 84.0245 55.1921C83.9976 55.3135 83.9808 55.4232 83.9739 55.5215C83.9326 55.5484 83.8695 55.5807 83.787 55.6155C83.5564 55.7124 83.2045 55.8157 82.7464 55.9202C81.8458 56.1256 80.5645 56.3298 79.0451 56.5122C76.0789 56.8683 72.552 57.1027 69.7483 57.1211C66.9439 57.1027 63.417 56.8683 60.451 56.5122C58.932 56.3298 57.6504 56.1256 56.7499 55.9202C56.366 55.8326 56.0565 55.7459 55.8306 55.663C55.8554 55.6535 55.8805 55.6429 55.9059 55.631C57.4351 54.9155 67.547 54.244 69.3676 54.1281C71.1889 54.244 81.3008 54.9155 82.8301 55.631Z" fill="#C88A02"/>
<path fill-rule="evenodd" clip-rule="evenodd" d="M69.4522 33.419C70.6116 33.419 71.5522 32.4788 71.5522 31.319C71.5522 30.1592 70.6116 29.219 69.4522 29.219C68.2922 29.219 67.3522 30.1592 67.3522 31.319C67.3522 32.4788 68.2922 33.419 69.4522 33.419Z" fill="#005BBF"/>
<path fill-rule="evenodd" clip-rule="evenodd" d="M68.0846 43.7298C68.129 43.9603 68.199 44.1749 68.2877 44.3661C68.0165 44.2625 67.6946 44.2024 67.349 44.2024C66.3827 44.2024 65.599 44.6726 65.599 45.2524C65.599 45.8324 66.3827 46.3024 67.349 46.3024C68.3152 46.3024 69.099 45.8324 69.099 45.2524C69.099 45.8324 69.8827 46.3024 70.849 46.3024C71.8152 46.3024 72.599 45.8324 72.599 45.2524C72.599 44.6726 71.8152 44.2024 70.849 44.2024C70.6058 44.2024 70.374 44.2322 70.1633 44.2861C70.214 43.999 70.2121 43.6699 70.1458 43.3291C69.9615 42.3804 69.3502 41.7009 68.7808 41.8116C68.2121 41.9222 67.8996 42.7811 68.0846 43.7298ZM57.7875 45.0661C57.6991 44.8749 57.6291 44.6603 57.5843 44.4298C57.3999 43.4811 57.7118 42.6222 58.2811 42.5116C58.8503 42.4009 59.4613 43.0804 59.6457 44.0291C59.712 44.3699 59.7142 44.699 59.6634 44.9861C59.8739 44.9322 60.1057 44.9024 60.3489 44.9024C61.3154 44.9024 62.0989 45.3726 62.0989 45.9524C62.0989 46.5324 61.3154 47.0024 60.3489 47.0024C59.3824 47.0024 58.5989 46.5324 58.5989 45.9524C58.5989 46.5324 57.8154 47.0024 56.8489 47.0024C55.8824 47.0024 55.0989 46.5324 55.0989 45.9524C55.0989 45.3726 55.8824 44.9024 56.8489 44.9024C57.1943 44.9024 57.5163 44.9625 57.7875 45.0661ZM79.7108 45.7059C79.6302 46.2802 78.789 46.6367 77.8321 46.5022C76.8746 46.3677 76.1646 45.7931 76.2452 45.2189C76.3258 44.6446 77.1671 44.2881 78.124 44.4226C78.4665 44.4707 78.7765 44.5749 79.0308 44.7153C78.9696 44.5136 78.9302 44.2914 78.9183 44.0569C78.8677 43.0917 79.2958 42.2847 79.8752 42.2544C80.454 42.224 80.9646 42.9818 81.0152 43.947C81.0333 44.2937 80.9896 44.6199 80.8996 44.8971C81.1158 44.8731 81.349 44.8759 81.5902 44.9097C82.5471 45.0442 83.2577 45.6188 83.1771 46.1931C83.0965 46.7673 82.2552 47.1238 81.2977 46.9893C80.3408 46.8547 79.6302 46.2802 79.7108 45.7059ZM86.3758 48.4826C87.2296 48.9363 88.1421 48.8891 88.414 48.377L88.4283 48.3484C88.5127 48.4373 88.6121 48.5021 88.7258 48.5368C89.2802 48.7064 89.959 48.0945 90.2415 47.1702C90.524 46.246 90.3033 45.3592 89.749 45.1897C89.1946 45.0202 88.5158 45.632 88.2333 46.5562C88.1646 46.7808 88.1258 47.0031 88.114 47.2135C87.9233 46.9947 87.6671 46.7905 87.3621 46.6284C86.5083 46.1746 85.5958 46.2219 85.324 46.7339C85.0515 47.2459 85.5227 48.0288 86.3758 48.4826ZM52.029 48.697C51.1757 49.1507 50.2632 49.1035 49.991 48.5914C49.9859 48.582 49.9812 48.5724 49.9766 48.5628C49.8925 48.6517 49.793 48.7165 49.6795 48.7512C49.1249 48.9207 48.4463 48.3089 48.1637 47.3847C47.8812 46.4604 48.1017 45.5737 48.6562 45.4042C49.2108 45.2346 49.8894 45.8464 50.172 46.7707C50.2406 46.9952 50.2796 47.2176 50.2913 47.4279C50.4821 47.2091 50.7382 47.0049 51.0432 46.8428C51.8965 46.3891 52.809 46.4363 53.0813 46.9483C53.3535 47.4603 52.8824 48.2432 52.029 48.697Z" fill="#C88A02"/>
<path fill-rule="evenodd" clip-rule="evenodd" d="M68.668 25.4783H70.1261V26.3996H71.0792V27.8579H70.1261V30.7746H71.0792V32.2329H67.6998V30.7746H68.668V27.8579H67.6998V26.3996H68.668V25.4783Z" fill="#C88A02"/>
<path d="M68.4022 33.3999H71.2022V42.4999H68.4022V33.3999Z" fill="#C88A02"/>
<path d="M57.1323 34.924L57.1201 35.624C50.9132 35.5156 47.3529 36.4214 46.4491 38.2267C45.5147 40.0931 45.6885 42.362 46.9977 45.0572L46.3681 45.363C44.9712 42.4874 44.7804 39.9962 45.8232 37.9134C46.8965 35.7694 50.6629 34.8111 57.1323 34.924Z" fill="white"/>
<path d="M58.3318 41.131L57.9729 41.732C56.6212 40.9249 55.9447 39.5476 55.9447 37.6494C55.9447 34.9214 57.35 33.3217 60.4584 32.227C62.4424 31.5283 65.1527 31.8147 68.5964 33.0634L68.3577 33.7214C65.0514 32.5228 62.4935 32.2524 60.691 32.8872C57.8398 33.8914 56.6447 35.2518 56.6447 37.6494C56.6447 39.3151 57.2066 40.4592 58.3318 41.131Z" fill="white"/>
<path d="M47.8737 43.9833L46.5529 44.4472C45.1824 40.5451 45.5737 37.895 47.9155 36.7518C49.9791 35.7445 52.9865 35.3346 56.9527 35.4953L56.896 36.8941C53.1408 36.742 50.347 37.1228 48.5297 38.0099C46.9907 38.7612 46.7091 40.6674 47.8737 43.9833Z" fill="#C88A02"/>
<path d="M63.3119 33.9912C60.111 33.9912 58.7966 34.7708 58.0457 37.0726C57.5671 38.5395 58.0312 39.7915 59.5362 40.9601L58.6775 42.0658C56.7291 40.5528 56.0422 38.6998 56.7147 36.6384C57.6717 33.705 59.5496 32.5912 63.3119 32.5912C65.7781 32.5912 67.6987 33.2391 69.0362 34.5576L69.245 34.7632V41.513H67.845V35.3616C66.8006 34.4542 65.3 33.9912 63.3119 33.9912Z" fill="#C88A02"/>
<path d="M81.5551 35.6237L81.5676 36.3235C87.7745 36.2152 91.3351 37.121 92.2388 38.9263C93.1732 40.7927 92.9995 43.0616 91.6901 45.7568L92.3195 46.0627C93.7163 43.187 93.907 40.6958 92.8645 38.6129C91.7913 36.4689 88.0251 35.5107 81.5551 35.6237Z" fill="white"/>
<path d="M79.3622 41.2767L79.721 41.8777C81.0728 41.0706 81.7491 39.6933 81.7491 37.7952C81.7491 35.0672 80.3441 33.4674 77.2353 32.3727C75.2516 31.674 72.5416 31.9605 69.0978 33.2091L69.3366 33.8672C72.6422 32.6685 75.2003 32.3981 77.0028 33.0329C79.8541 34.037 81.0491 35.3975 81.0491 37.7952C81.0491 39.4609 80.4872 40.6049 79.3622 41.2767Z" fill="white"/>
<path d="M91.2444 44.6837L92.5656 45.1476C93.9362 41.2454 93.5444 38.5954 91.2025 37.4522C89.1394 36.4449 86.1319 36.0349 82.1656 36.1957L82.2225 37.5946C85.9775 37.4424 88.7712 37.8232 90.5887 38.7103C92.1275 39.4616 92.4094 41.3678 91.2444 44.6837Z" fill="#C88A02"/>
<path d="M75.7329 34.0996C78.9342 34.0996 80.2486 34.8792 80.9992 37.181C81.4779 38.6479 81.0136 39.8999 79.5086 41.0686L80.3673 42.1743C82.3161 40.6613 83.0029 38.8082 82.3304 36.7468C81.3729 33.8134 79.4954 32.6996 75.7329 32.6996C73.2673 32.6996 71.3461 33.3475 70.0086 34.666L69.7998 34.8716V41.6214H71.1998V35.47C72.2448 34.5627 73.7448 34.0996 75.7329 34.0996Z" fill="#C88A02"/>
<path opacity="0.3" fill-rule="evenodd" clip-rule="evenodd" d="M46.6981 57.8995H92.1977V98.7794C92.1977 98.7794 88.8184 112.499 69.4477 112.499C50.0779 112.499 46.6981 98.4181 46.6981 98.4181V57.8995Z" fill="#E1E5E8"/>
<mask id="mask4_154_155" style="mask-type:luminance" maskUnits="userSpaceOnUse" x="46" y="57" width="47" height="56">
<path fill-rule="evenodd" clip-rule="evenodd" d="M46.6981 57.8995H92.1977V98.7794C92.1977 98.7794 88.8184 112.499 69.4477 112.499C50.0779 112.499 46.6981 98.4181 46.6981 98.4181V57.8995Z" fill="white"/>
</mask>
<g mask="url(#mask4_154_155)">
<path d="M46.6977 83.0993H69.7977V110.399H46.6977V83.0993Z" fill="#FFC034"/>
<path d="M49.4991 84.4993H52.2991V110.399H49.4991V84.4993Z" fill="#AD1619"/>
<path d="M59.2951 84.4993H62.0951V110.399H59.2951V84.4993Z" fill="#AD1619"/>
<path d="M54.4002 84.4993H57.2002V110.399H54.4002V84.4993Z" fill="#AD1619"/>
<path d="M64.1965 84.4993H66.9965V110.399H64.1965V84.4993Z" fill="#AD1619"/>
<path d="M46.6979 57.1992H69.7979V83.7992H46.6979V57.1992Z" fill="#AD1619"/>
<path d="M69.0975 82.4H92.1975V109H69.0975V82.4Z" fill="#AD1619"/>
<path d="M69.0975 57.8995H93.5975V83.7995H69.0975V57.8995Z" fill="#F1F9FF"/>
<path fill-rule="evenodd" clip-rule="evenodd" d="M56.4988 59.9998H58.5988V65.8074H59.9988V62.9037H62.0988V65.8074H64.1989V69.4368H62.0988V75.9699H64.1989V79.5999H51.5988V75.9699H53.6988V69.4368H51.5988V65.8074H52.9988V62.9037H55.0988V65.8074H56.4988V59.9998Z" fill="#C88A02"/>
<path d="M81.1153 61.2185L82.5484 59.684L85.5584 62.4954L84.1246 64.03L81.1153 61.2185Z" fill="#C88A02"/>
<path fill-rule="evenodd" clip-rule="evenodd" d="M89.7471 100.874V85.5493H72.2471V100.746L72.2746 100.864C73.1602 104.639 76.1771 106.549 80.9971 106.549C85.8115 106.549 88.8284 104.689 89.7177 100.996L89.7471 100.874ZM80.9971 104.449C77.1302 104.449 75.0184 103.147 74.3471 100.499V87.6493H87.6471V100.621C86.9771 103.182 84.8652 104.449 80.9971 104.449Z" fill="#FFC034"/>
<path fill-rule="evenodd" clip-rule="evenodd" d="M81.7172 86.83H80.2591V93.7781L74.5103 87.5256L73.4797 88.4731L78.6785 94.1275H73.9678V96.2275H77.5866H78.7928L73.4797 102.007L74.5103 102.954L80.2591 96.7019V104.823H81.7172V97.4325L86.7941 102.954L87.8247 102.007L82.511 96.2275H88.4422V94.1275H82.626L87.8247 88.4731L86.7941 87.5256L81.7172 93.0475V86.83Z" fill="#FFC034"/>
<path fill-rule="evenodd" clip-rule="evenodd" d="M84.2633 109.016C84.2633 109.016 69.437 110.182 69.437 100.619C69.437 100.619 69.2958 109.016 53.8143 109.016V116.565H84.2633V109.016Z" fill="#F1F9FF"/>
<path fill-rule="evenodd" clip-rule="evenodd" d="M69.4465 88.6993C72.3459 88.6993 74.6965 86.1918 74.6965 83.0993C74.6965 80.0068 72.3459 77.4993 69.4465 77.4993C66.5471 77.4993 64.1965 80.0068 64.1965 83.0993C64.1965 86.1918 66.5471 88.6993 69.4465 88.6993Z" fill="#005BBF" stroke="#AD1619" stroke-width="43.2982"/>
</g>
</g>
</g>
</svg>
