<svg width="200" height="158" viewBox="0 0 200 158" fill="none" xmlns="http://www.w3.org/2000/svg">
<path d="M16.6154 48.6155C16.6154 51.3344 14.4112 53.5385 11.6923 53.5385C8.97336 53.5385 6.76923 51.3344 6.76923 48.6155C6.76923 45.8965 8.97336 43.6924 11.6923 43.6924C14.4112 43.6924 16.6154 45.8965 16.6154 48.6155Z" fill="#62117A"/>
<path fill-rule="evenodd" clip-rule="evenodd" d="M43.0769 60.923C49.8742 60.923 55.3846 55.4127 55.3846 48.6153C55.3846 41.818 49.8742 36.3077 43.0769 36.3077C36.2795 36.3077 30.7692 41.818 30.7692 48.6153C30.7692 55.4127 36.2795 60.923 43.0769 60.923ZM43.0769 67.0769C53.2729 67.0769 61.5384 58.8114 61.5384 48.6153C61.5384 38.4193 53.2729 30.1538 43.0769 30.1538C32.8809 30.1538 24.6154 38.4193 24.6154 48.6153C24.6154 58.8114 32.8809 67.0769 43.0769 67.0769Z" fill="#62117A"/>
<path fill-rule="evenodd" clip-rule="evenodd" d="M90.7692 72.6154C103.854 72.6154 114.462 62.008 114.462 48.9231C114.462 35.8382 103.854 25.2308 90.7692 25.2308C77.6843 25.2308 67.0769 35.8382 67.0769 48.9231C67.0769 62.008 77.6843 72.6154 90.7692 72.6154ZM90.7692 80C107.933 80 121.846 66.0864 121.846 48.9231C121.846 31.7598 107.933 17.8462 90.7692 17.8462C73.6059 17.8462 59.6923 31.7598 59.6923 48.9231C59.6923 66.0864 73.6059 80 90.7692 80Z" fill="#62117A"/>
<path fill-rule="evenodd" clip-rule="evenodd" d="M146.154 88.6154C168.075 88.6154 185.846 70.8445 185.846 48.9231C185.846 27.0016 168.075 9.23077 146.154 9.23077C124.232 9.23077 106.462 27.0016 106.462 48.9231C106.462 70.8445 124.232 88.6154 146.154 88.6154ZM146.154 97.8462C173.173 97.8462 195.077 75.9425 195.077 48.9231C195.077 21.9036 173.173 0 146.154 0C119.134 0 97.2308 21.9036 97.2308 48.9231C97.2308 75.9425 119.134 97.8462 146.154 97.8462Z" fill="#62117A"/>
<path fill-rule="evenodd" clip-rule="evenodd" d="M200 49.2308L1.07597e-07 49.2308L0 48L200 48L200 49.2308Z" fill="black"/>
<path d="M165.859 157.809C162.721 157.809 159.804 157.311 157.108 156.314C154.45 155.317 152.142 153.914 150.185 152.105C148.228 150.258 146.696 148.098 145.588 145.625C144.518 143.151 143.982 140.455 143.982 137.538C143.982 134.585 144.518 131.889 145.588 129.452C146.696 126.978 148.228 124.837 150.185 123.028C152.142 121.182 154.45 119.76 157.108 118.763C159.804 117.766 162.721 117.268 165.859 117.268C169.034 117.268 171.951 117.766 174.61 118.763C177.268 119.76 179.576 121.182 181.533 123.028C183.49 124.837 185.004 126.978 186.074 129.452C187.182 131.889 187.736 134.585 187.736 137.538C187.736 140.455 187.182 143.151 186.074 145.625C185.004 148.098 183.49 150.258 181.533 152.105C179.576 153.914 177.268 155.317 174.61 156.314C171.951 157.311 169.034 157.809 165.859 157.809ZM165.859 147.231C167.077 147.231 168.204 147.009 169.238 146.566C170.308 146.123 171.231 145.495 172.007 144.683C172.819 143.834 173.447 142.818 173.89 141.637C174.333 140.418 174.554 139.052 174.554 137.538C174.554 136.025 174.333 134.677 173.89 133.495C173.447 132.277 172.819 131.262 172.007 130.449C171.231 129.6 170.308 128.954 169.238 128.511C168.204 128.068 167.077 127.846 165.859 127.846C164.641 127.846 163.496 128.068 162.425 128.511C161.391 128.954 160.468 129.6 159.656 130.449C158.881 131.262 158.271 132.277 157.828 133.495C157.385 134.677 157.164 136.025 157.164 137.538C157.164 139.052 157.385 140.418 157.828 141.637C158.271 142.818 158.881 143.834 159.656 144.683C160.468 145.495 161.391 146.123 162.425 146.566C163.496 147.009 164.641 147.231 165.859 147.231Z" fill="#62117A"/>
<path d="M96.9333 157.809C93.8318 157.809 90.9518 157.329 88.2933 156.369C85.6718 155.372 83.3825 153.969 81.4256 152.16C79.5056 150.351 78.0102 148.209 76.9395 145.735C75.8687 143.262 75.3333 140.529 75.3333 137.538C75.3333 134.548 75.8687 131.815 76.9395 129.342C78.0102 126.868 79.5056 124.726 81.4256 122.917C83.3825 121.108 85.6718 119.723 88.2933 118.763C90.9518 117.766 93.8318 117.268 96.9333 117.268C100.736 117.268 104.096 117.932 107.013 119.262C109.967 120.591 112.404 122.511 114.324 125.022L106.072 132.388C104.927 130.948 103.653 129.84 102.25 129.065C100.884 128.252 99.3333 127.846 97.5979 127.846C96.2318 127.846 94.9949 128.068 93.8872 128.511C92.7795 128.954 91.8195 129.6 91.0072 130.449C90.2318 131.298 89.6225 132.332 89.1795 133.551C88.7364 134.732 88.5149 136.062 88.5149 137.538C88.5149 139.015 88.7364 140.363 89.1795 141.582C89.6225 142.763 90.2318 143.778 91.0072 144.628C91.8195 145.477 92.7795 146.123 93.8872 146.566C94.9949 147.009 96.2318 147.231 97.5979 147.231C99.3333 147.231 100.884 146.843 102.25 146.068C103.653 145.255 104.927 144.129 106.072 142.689L114.324 150.055C112.404 152.529 109.967 154.449 107.013 155.815C104.096 157.145 100.736 157.809 96.9333 157.809Z" fill="#62117A"/>
<path d="M23.3354 132.554H40.6154V141.969H23.3354V132.554ZM24.2215 147.065H43.6062V156.923H11.3723V118.154H42.8862V128.012H24.2215V147.065Z" fill="#62117A"/>
</svg>
