<svg width="200" height="150" viewBox="0 0 200 150" fill="none" xmlns="http://www.w3.org/2000/svg">
<mask id="mask0_154_82" style="mask-type:luminance" maskUnits="userSpaceOnUse" x="0" y="0" width="200" height="150">
<path d="M0 0H200V150H0V0Z" fill="white"/>
</mask>
<g mask="url(#mask0_154_82)">
<path fill-rule="evenodd" clip-rule="evenodd" d="M0 0H200V150H0V0Z" fill="#F7FCFF"/>
<path fill-rule="evenodd" clip-rule="evenodd" d="M0 91.6669V104.167H200V91.6669H0Z" fill="#E31D1C"/>
<path fill-rule="evenodd" clip-rule="evenodd" d="M0 114.583V127.083H200V114.583H0Z" fill="#E31D1C"/>
<path fill-rule="evenodd" clip-rule="evenodd" d="M0 45.8328V58.3328H200V45.8328H0Z" fill="#E31D1C"/>
<path fill-rule="evenodd" clip-rule="evenodd" d="M0 137.5V150H200V137.5H0Z" fill="#E31D1C"/>
<path fill-rule="evenodd" clip-rule="evenodd" d="M0 68.75V81.25H200V68.75H0Z" fill="#E31D1C"/>
<path fill-rule="evenodd" clip-rule="evenodd" d="M0 0V12.5H200V0H0Z" fill="#E31D1C"/>
<path fill-rule="evenodd" clip-rule="evenodd" d="M0 22.9172V35.4172H200V22.9172H0Z" fill="#E31D1C"/>
<path d="M0 0H125V81.25H0V0Z" fill="#2E42A5"/>
<path fill-rule="evenodd" clip-rule="evenodd" d="M10.7639 18.3669L6.22712 21.5474L7.75876 15.8874L3.7293 12.3004H8.99232L10.7575 7.68124L12.8273 12.3004H17.3139L13.7887 15.8874L15.1534 21.5474L10.7639 18.3669ZM35.7639 18.3669L31.2271 21.5474L32.7588 15.8874L28.7293 12.3004H33.9923L35.7575 7.68124L37.8273 12.3004H42.3139L38.7887 15.8874L40.1534 21.5474L35.7639 18.3669ZM56.2271 21.5474L60.7639 18.3669L65.1534 21.5474L63.7885 15.8874L67.3141 12.3004H62.8272L60.7575 7.68124L58.9923 12.3004H53.7293L57.7588 15.8874L56.2271 21.5474ZM85.7641 18.3669L81.2272 21.5474L82.7591 15.8874L78.7291 12.3004H83.9922L85.7578 7.68124L87.8272 12.3004H92.3141L88.7885 15.8874L90.1534 21.5474L85.7641 18.3669ZM6.22712 46.5474L10.7639 43.3669L15.1534 46.5474L13.7887 40.8874L17.3139 37.3004H12.8273L10.7575 32.6812L8.99232 37.3004H3.7293L7.75876 40.8874L6.22712 46.5474ZM35.7639 43.3669L31.2271 46.5474L32.7588 40.8874L28.7293 37.3004H33.9923L35.7575 32.6812L37.8273 37.3004H42.3139L38.7887 40.8874L40.1534 46.5474L35.7639 43.3669ZM56.2271 46.5474L60.7639 43.3669L65.1534 46.5474L63.7885 40.8874L67.3141 37.3004H62.8272L60.7575 32.6812L58.9923 37.3004H53.7293L57.7588 40.8874L56.2271 46.5474ZM85.7641 43.3669L81.2272 46.5474L82.7591 40.8874L78.7291 37.3004H83.9922L85.7578 32.6812L87.8272 37.3004H92.3141L88.7885 40.8874L90.1534 46.5474L85.7641 43.3669ZM6.22712 71.5475L10.7639 68.3669L15.1534 71.5475L13.7887 65.8875L17.3139 62.3004H12.8273L10.7575 57.6812L8.99232 62.3004H3.7293L7.75876 65.8875L6.22712 71.5475ZM35.7639 68.3669L31.2271 71.5475L32.7588 65.8875L28.7293 62.3004H33.9923L35.7575 57.6812L37.8273 62.3004H42.3139L38.7887 65.8875L40.1534 71.5475L35.7639 68.3669ZM56.2271 71.5475L60.7639 68.3669L65.1534 71.5475L63.7885 65.8875L67.3141 62.3004H62.8272L60.7575 57.6812L58.9923 62.3004H53.7293L57.7588 65.8875L56.2271 71.5475ZM85.7641 68.3669L81.2272 71.5475L82.7591 65.8875L78.7291 62.3004H83.9922L85.7578 57.6812L87.8272 62.3004H92.3141L88.7885 65.8875L90.1534 71.5475L85.7641 68.3669ZM106.227 21.5474L110.764 18.3669L115.153 21.5474L113.788 15.8874L117.314 12.3004H112.827L110.758 7.68124L108.992 12.3004H103.729L107.759 15.8874L106.227 21.5474ZM110.764 43.3669L106.227 46.5474L107.759 40.8874L103.729 37.3004H108.992L110.758 32.6812L112.827 37.3004H117.314L113.788 40.8874L115.153 46.5474L110.764 43.3669ZM106.227 71.5475L110.764 68.3669L115.153 71.5475L113.788 65.8875L117.314 62.3004H112.827L110.758 57.6812L108.992 62.3004H103.729L107.759 65.8875L106.227 71.5475ZM23.2639 30.8669L18.7271 34.0474L20.2588 28.3874L16.2293 24.8004H21.4923L23.2575 20.1812L25.3273 24.8004H29.8139L26.2887 28.3874L27.6534 34.0474L23.2639 30.8669ZM43.7271 34.0474L48.2639 30.8669L52.6534 34.0474L51.2887 28.3874L54.8139 24.8004H50.3273L48.2575 20.1812L46.4923 24.8004H41.2293L45.2588 28.3874L43.7271 34.0474ZM73.2641 30.8669L68.7272 34.0474L70.2591 28.3874L66.2291 24.8004H71.4922L73.2578 20.1812L75.3272 24.8004H79.8141L76.2885 28.3874L77.6534 34.0474L73.2641 30.8669ZM18.7271 59.0474L23.2639 55.8669L27.6534 59.0474L26.2887 53.3874L29.8139 49.8004H25.3273L23.2575 45.1812L21.4923 49.8004H16.2293L20.2588 53.3874L18.7271 59.0474ZM48.2639 55.8669L43.7271 59.0474L45.2588 53.3874L41.2293 49.8004H46.4923L48.2575 45.1812L50.3273 49.8004H54.8139L51.2887 53.3874L52.6534 59.0474L48.2639 55.8669ZM68.7272 59.0474L73.2641 55.8669L77.6534 59.0474L76.2885 53.3874L79.8141 49.8004H75.3272L73.2578 45.1812L71.4922 49.8004H66.2291L70.2591 53.3874L68.7272 59.0474ZM98.2641 30.8669L93.7272 34.0474L95.2591 28.3874L91.2291 24.8004H96.4922L98.2578 20.1812L100.327 24.8004H104.814L101.288 28.3874L102.653 34.0474L98.2641 30.8669ZM93.7272 59.0474L98.2641 55.8669L102.653 59.0474L101.288 53.3874L104.814 49.8004H100.327L98.2578 45.1812L96.4922 49.8004H91.2291L95.2591 53.3874L93.7272 59.0474Z" fill="#F7FCFF"/>
</g>
</svg>
